HIERARCHY
ROOT Hips
{
	OFFSET -0.001795 -0.223333 0.028219
	CHANNELS 6 Xposition Yposition Zposition Zrotation Yrotation Xrotation 
	JOINT LeftUpLeg
	{
		OFFSET 0.069520 -0.091406 -0.006815
		CHANNELS 3 Zrotation Yrotation Xrotation
		JOINT LeftLeg
		{
			OFFSET 0.034277 -0.375199 -0.004496
			CHANNELS 3 Zrotation Yrotation Xrotation
			JOINT LeftFoot
			{
				OFFSET -0.013596 -0.397961 -0.043693
				CHANNELS 3 Zrotation Yrotation Xrotation
				JOINT LeftToe
				{
					OFFSET 0.026358 -0.055791 0.119288
					CHANNELS 3 Zrotation Yrotation Xrotation
					End Site
					{
						OFFSET 0.000000 0.000000 0.000000
					}
				}
			}
		}
	}
	JOINT RightUpLeg
	{
		OFFSET -0.067670 -0.090522 -0.004320
		CHANNELS 3 Zrotation Yrotation Xrotation
		JOINT RightLeg
		{
			OFFSET -0.038290 -0.382569 -0.008850
			CHANNELS 3 Zrotation Yrotation Xrotation
			JOINT RightFoot
			{
				OFFSET 0.015774 -0.398415 -0.042312
				CHANNELS 3 Zrotation Yrotation Xrotation
				JOINT RightToe
				{
					OFFSET -0.025372 -0.048144 0.123348
					CHANNELS 3 Zrotation Yrotation Xrotation
					End Site
					{
						OFFSET 0.000000 0.000000 0.000000
					}
				}
			}
		}
	}
	JOINT Spine
	{
		OFFSET -0.002533 0.108963 -0.026696
		CHANNELS 3 Zrotation Yrotation Xrotation
		JOINT Spine1
		{
			OFFSET 0.005487 0.135180 0.001092
			CHANNELS 3 Zrotation Yrotation Xrotation
			JOINT Spine2
			{
				OFFSET 0.001457 0.052922 0.025425
				CHANNELS 3 Zrotation Yrotation Xrotation
				JOINT Neck
				{
					OFFSET -0.002778 0.213870 -0.042857
					CHANNELS 3 Zrotation Yrotation Xrotation
					JOINT Head
					{
						OFFSET 0.005152 0.064970 0.051349
						CHANNELS 3 Zrotation Yrotation Xrotation
						End Site
						{
							OFFSET 0.000000 0.000000 0.000000
						}
					}
				}
				JOINT LeftShoulder
				{
					OFFSET 0.078845 0.121749 -0.034090
					CHANNELS 3 Zrotation Yrotation Xrotation
					JOINT LeftArm
					{
						OFFSET 0.090977 0.030469 -0.008868
						CHANNELS 3 Zrotation Yrotation Xrotation
						JOINT LeftForeArm
						{
							OFFSET 0.259612 -0.012772 -0.027456
							CHANNELS 3 Zrotation Yrotation Xrotation
							JOINT LeftHand
							{
								OFFSET 0.249234 0.008986 -0.001171
								CHANNELS 3 Zrotation Yrotation Xrotation
								End Site
								{
									OFFSET 0.000000 0.000000 0.000000
								}
							}
						}
					}
				}
				JOINT RightShoulder
				{
					OFFSET -0.081759 0.118833 -0.038615
					CHANNELS 3 Zrotation Yrotation Xrotation
					JOINT RightArm
					{
						OFFSET -0.096012 0.032551 -0.009143
						CHANNELS 3 Zrotation Yrotation Xrotation
						JOINT RightForeArm
						{
							OFFSET -0.253742 -0.013329 -0.021401
							CHANNELS 3 Zrotation Yrotation Xrotation
							JOINT RightHand
							{
								OFFSET -0.255298 0.007772 -0.005559
								CHANNELS 3 Zrotation Yrotation Xrotation
								End Site
								{
									OFFSET 0.000000 0.000000 0.000000
								}
							}
						}
					}
				}
			}
		}
	}
}
MOTION
Frames: 6
Frame Time: 0.050000
0.000000 0.951014 0.000000 -1.260849 1.266929 2.190668 5.668729 0.061909 4.498705 -4.563849 0.450572 -4.903538 3.093325 10.008502 13.148078 0.000000 0.000000 0.000000 -3.934972 -0.025183 1.878390 3.363271 -0.412027 -4.669828 -9.526093 -21.783342 23.584969 0.000000 0.000000 0.000000 -1.399277 0.035567 -0.509493 4.008672 -0.432552 -22.419688 -1.034752 -0.870057 29.209356 0.797885 1.114855 -26.555488 0.000000 0.000000 0.000000 -23.466793 2.418979 -2.769268 -54.751526 -8.238051 -5.396268 -12.412171 -20.522304 3.333678 0.000000 0.000000 0.000000 15.357760 1.775562 0.173586 61.562952 5.940539 -5.688609 5.363293 20.480500 1.807432 0.000000 0.000000 0.000000 
0.000156 0.950144 0.000399 -1.328833 0.659324 2.621214 6.128980 0.032006 4.296695 -5.423229 0.508045 -5.158542 3.386766 10.397135 13.137050 0.000000 0.000000 0.000000 -3.989478 0.036248 1.147420 3.471151 -0.409930 -4.308272 -9.292911 -21.540322 23.097750 0.000000 0.000000 0.000000 -1.402578 0.075910 -1.823187 4.092373 -0.524602 -21.372234 -1.190153 -0.657441 29.219732 0.431784 1.279081 -26.164720 0.000000 0.000000 0.000000 -23.984680 3.430493 -3.399814 -54.329175 -8.640204 -5.192509 -13.223501 -21.002417 3.581439 0.000000 0.000000 0.000000 14.892193 1.930953 0.232411 62.934633 5.375527 -6.081080 4.252223 22.117280 1.794380 0.000000 0.000000 0.000000 
0.000335 0.950151 0.000527 -0.984383 0.401180 2.833812 5.966865 0.018846 3.627923 -5.883629 0.555414 -4.318522 3.515405 10.575908 13.163411 0.000000 0.000000 0.000000 -4.293882 0.054212 1.126725 3.277329 -0.398325 -4.724958 -9.177341 -21.406168 23.014799 0.000000 0.000000 0.000000 -1.350712 0.090109 -2.273400 3.534964 -0.381071 -21.361022 -1.153087 -0.838474 29.392685 -0.051616 1.481858 -25.794437 0.000000 0.000000 0.000000 -23.630605 3.050523 -3.006500 -54.400470 -8.907537 -5.118872 -12.135388 -21.130314 3.407780 0.000000 0.000000 0.000000 15.332753 2.429494 0.387299 62.222305 5.081875 -6.206555 4.222577 21.985105 1.750373 0.000000 0.000000 0.000000 
0.000410 0.950174 0.000693 -0.959204 -0.018076 2.957658 6.196925 0.010113 3.557241 -6.448851 0.601618 -4.309193 3.673222 10.809186 13.325864 0.000000 0.000000 0.000000 -4.511134 0.093672 0.715917 3.529763 -0.407197 -4.324721 -8.982391 -21.183840 22.812540 0.000000 0.000000 0.000000 -1.490895 0.099059 -2.548093 3.859643 -0.466836 -21.499434 -1.368096 -0.864840 29.603178 -0.263025 1.535165 -25.334670 0.000000 0.000000 0.000000 -24.368848 4.088137 -3.631234 -53.904670 -9.084982 -5.043481 -13.192893 -20.848925 3.577225 0.000000 0.000000 0.000000 15.063744 2.571125 0.414209 62.209259 5.007480 -6.280634 5.275465 22.377390 1.968237 0.000000 0.000000 0.000000 
0.000385 0.950773 0.000744 -0.959755 0.173431 2.813187 6.213956 0.002621 3.419046 -6.415873 0.606719 -3.842192 3.575440 10.685381 13.368030 0.000000 0.000000 0.000000 -4.441228 0.073379 0.946623 3.375043 -0.397985 -4.244390 -8.780773 -20.880643 22.657437 0.000000 0.000000 0.000000 -1.426014 0.085557 -2.105783 4.055665 -0.531169 -21.238660 -1.613396 -0.933677 28.976813 -0.381094 1.601388 -24.950159 0.000000 0.000000 0.000000 -24.136405 4.078389 -3.644399 -54.040490 -9.139751 -4.946347 -13.402590 -21.262943 3.685568 0.000000 0.000000 0.000000 14.991361 2.468819 0.357376 61.938589 4.945957 -6.212104 5.757764 22.113616 2.015668 0.000000 0.000000 0.000000 
0.000391 0.951372 0.000805 -0.916223 0.068504 2.767715 6.187457 0.001146 3.270789 -6.472640 0.621313 -3.474104 3.603956 10.749078 13.521543 0.000000 0.000000 0.000000 -4.533943 0.068017 1.103871 3.330683 -0.393587 -4.195901 -8.270289 -20.166556 22.156194 0.000000 0.000000 0.000000 -1.634345 0.085242 -2.101696 4.214621 -0.550965 -21.632793 -1.629978 -1.077718 29.477691 -0.648155 1.719913 -24.913434 0.000000 0.000000 0.000000 -24.249738 4.408761 -3.772750 -54.121370 -9.362327 -4.922440 -13.393576 -21.535538 3.756449 0.000000 0.000000 0.000000 14.610742 2.462725 0.339687 62.013820 4.933170 -6.289899 6.023331 22.282846 2.078405 0.000000 0.000000 0.000000 
